{
  "accessors": [
    {
      "bufferView": 2,
      "componentType": 5126,
      "count": 65532,
      "max": [
        70.82760620117188,
        94.11609649658203,
        343.42498779296875
      ],
      "min": [
        -85.90772247314453,
        -78.97720336914063,
        0.3953956961631775
      ],
      "type": "VEC3"
    },
    {
      "bufferView": 2,
      "byteOffset": 786384,
      "componentType": 5126,
      "count": 65532,
      "max": [
        1.0,
        1.0,
        1.0
      ],
      "min": [
        -1.0,
        -1.0,
        -1.0
      ],
      "type": "VEC3"
    },
    {
      "bufferView": 3,
      "componentType": 5126,
      "count": 65532,
      "max": [
        1.0,
        1.0,
        1.0,
        1.0
      ],
      "min": [
        -1.0,
        -1.0,
        -1.0,
        1.0
      ],
      "type": "VEC4"
    },
    {
      "bufferView": 1,
      "componentType": 5126,
      "count": 65532,
      "max": [
        0.7784225940704346,
        0.9208106994628906
      ],
      "min": [
        0.0035001530777662992,
        0.43032193183898926
      ],
      "type": "VEC2"
    },
    {
      "bufferView": 0,
      "componentType": 5125,
      "count": 361779,
      "type": "SCALAR"
    },
    {
      "bufferView": 2,
      "byteOffset": 1572768,
      "componentType": 5126,
      "count": 65532,
      "max": [
        87.23650360107422,
        91.5647201538086,
        329.0887145996094
      ],
      "min": [
        -87.23650360107422,
        -80.30597686767578,
        0.3227181136608124
      ],
      "type": "VEC3"
    },
    {
      "bufferView": 2,
      "byteOffset": 2359152,
      "componentType": 5126,
      "count": 65532,
      "max": [
        1.0,
        1.0,
        1.0
      ],
      "min": [
        -1.0,
        -1.0,
        -1.0
      ],
      "type": "VEC3"
    },
    {
      "bufferView": 3,
      "byteOffset": 1048512,
      "componentType": 5126,
      "count": 65532,
      "max": [
        1.0,
        1.0,
        0.9996293187141418,
        1.0
      ],
      "min": [
        -1.0,
        -1.0,
        -0.9997473359107971,
        1.0
      ],
      "type": "VEC4"
    },
    {
      "bufferView": 1,
      "byteOffset": 524256,
      "componentType": 5126,
      "count": 65532,
      "max": [
        0.332751601934433,
        0.8430629968643188
      ],
      "min": [
        -0.007424576207995415,
        0.4306671619415283
      ],
      "type": "VEC2"
    },
    {
      "bufferView": 0,
      "byteOffset": 1447116,
      "componentType": 5125,
      "count": 367491,
      "type": "SCALAR"
    },
    {
      "bufferView": 2,
      "byteOffset": 3145536,
      "componentType": 5126,
      "count": 65532,
      "max": [
        84.63612365722656,
        97.69911193847656,
        365.92401123046875
      ],
      "min": [
        -86.76654815673828,
        -81.31268310546875,
        0.373590886592865
      ],
      "type": "VEC3"
    },
    {
      "bufferView": 2,
      "byteOffset": 3931920,
      "componentType": 5126,
      "count": 65532,
      "max": [
        1.0,
        1.0,
        1.0
      ],
      "min": [
        -1.0,
        -1.0,
        -1.0
      ],
      "type": "VEC3"
    },
    {
      "bufferView": 3,
      "byteOffset": 2097024,
      "componentType": 5126,
      "count": 65532,
      "max": [
        1.0,
        1.0,
        1.0,
        1.0
      ],
      "min": [
        -1.0,
        -1.0,
        -1.0,
        -1.0
      ],
      "type": "VEC4"
    },
    {
      "bufferView": 1,
      "byteOffset": 1048512,
      "componentType": 5126,
      "count": 65532,
      "max": [
        0.996906578540802,
        0.9051933288574219
      ],
      "min": [
        -0.006774575915187597,
        0.016381144523620605
      ],
      "type": "VEC2"
    },
    {
      "bufferView": 0,
      "byteOffset": 2917080,
      "componentType": 5125,
      "count": 350955,
      "type": "SCALAR"
    },
    {
      "bufferView": 2,
      "byteOffset": 4718304,
      "componentType": 5126,
      "count": 32,
      "max": [
        -22.316829681396484,
        86.53156280517578,
        305.5137023925781
      ],
      "min": [
        -25.82988929748535,
        83.91932678222656,
        301.3616027832031
      ],
      "type": "VEC3"
    },
    {
      "bufferView": 2,
      "byteOffset": 4718688,
      "componentType": 5126,
      "count": 32,
      "max": [
        0.6979666352272034,
        0.7064253687858582,
        0.867526113986969
      ],
      "min": [
        -0.2520712912082672,
        -0.7677590250968933,
        -0.9650117754936218
      ],
      "type": "VEC3"
    },
    {
      "bufferView": 3,
      "byteOffset": 3145536,
      "componentType": 5126,
      "count": 32,
      "max": [
        0.25775519013404846,
        0.9999993443489075,
        0.806452751159668,
        1.0
      ],
      "min": [
        -0.2587380111217499,
        -0.9468808174133301,
        -0.7258436679840088,
        1.0
      ],
      "type": "VEC4"
    },
    {
      "bufferView": 1,
      "byteOffset": 1572768,
      "componentType": 5126,
      "count": 32,
      "max": [
        0.46430501341819763,
        0.8463752269744873
      ],
      "min": [
        0.44323450326919556,
        0.8380206823348999
      ],
      "type": "VEC2"
    },
    {
      "bufferView": 0,
      "byteOffset": 4320900,
      "componentType": 5125,
      "count": 57,
      "type": "SCALAR"
    },
    {
      "bufferView": 2,
      "byteOffset": 4719072,
      "componentType": 5126,
      "count": 11943,
      "max": [
        84.38355255126953,
        83.2783432006836,
        166.54640197753906
      ],
      "min": [
        -84.38355255126953,
        -83.2783432006836,
        139.2198028564453
      ],
      "type": "VEC3"
    },
    {
      "bufferView": 2,
      "byteOffset": 4862388,
      "componentType": 5126,
      "count": 11943,
      "max": [
        0.9999408721923828,
        0.9994874000549316,
        0.9999998211860657
      ],
      "min": [
        -0.9999408721923828,
        -0.9996470212936401,
        -1.0
      ],
      "type": "VEC3"
    },
    {
      "bufferView": 3,
      "byteOffset": 3146048,
      "componentType": 5126,
      "count": 11943,
      "max": [
        1.0,
        0.9865140318870544,
        0.9999470710754395,
        1.0
      ],
      "min": [
        -0.9931015372276306,
        -0.9864116311073303,
        -0.9999443888664246,
        1.0
      ],
      "type": "VEC4"
    },
    {
      "bufferView": 1,
      "byteOffset": 1573024,
      "componentType": 5126,
      "count": 11943,
      "max": [
        0.7576177716255188,
        0.4162905216217041
      ],
      "min": [
        0.0072610098868608475,
        0.00454866886138916
      ],
      "type": "VEC2"
    },
    {
      "bufferView": 0,
      "byteOffset": 4321128,
      "componentType": 5125,
      "count": 69600,
      "type": "SCALAR"
    }
  ],
  "asset": {
    "extras": {
      "author": "eucocker (https://sketchfab.com/eucocker)",
      "license": "CC-BY-4.0 (http://creativecommons.org/licenses/by/4.0/)",
      "source": "https://sketchfab.com/3d-models/chair-c5f49f97856c461a8192fb950ce23540",
      "title": "Chair"
    },
    "generator": "Sketchfab-12.68.0",
    "version": "2.0"
  },
  "bufferViews": [
    {
      "buffer": 0,
      "byteLength": 4599528,
      "name": "floatBufferViews",
      "target": 34963
    },
    {
      "buffer": 0,
      "byteLength": 1668568,
      "byteOffset": 4599528,
      "byteStride": 8,
      "name": "floatBufferViews",
      "target": 34962
    },
    {
      "buffer": 0,
      "byteLength": 5005704,
      "byteOffset": 6268096,
      "byteStride": 12,
      "name": "floatBufferViews",
      "target": 34962
    },
    {
      "buffer": 0,
      "byteLength": 3337136,
      "byteOffset": 11273800,
      "byteStride": 16,
      "name": "floatBufferViews",
      "target": 34962
    }
  ],
  "buffers": [
    {
      "byteLength": 14610936,
      "uri": "scene.bin"
    }
  ],
  "images": [
    {
      "uri": "textures/default_baseColor.png"
    },
    {
      "uri": "textures/default_metallicRoughness.png"
    },
    {
      "uri": "textures/default_normal.png"
    }
  ],
  "materials": [
    {
      "doubleSided": true,
      "name": "default",
      "normalTexture": {
        "index": 2
      },
      "occlusionTexture": {
        "index": 1
      },
      "pbrMetallicRoughness": {
        "baseColorTexture": {
          "index": 0
        },
        "metallicRoughnessTexture": {
          "index": 1
        }
      }
    }
  ],
  "meshes": [
    {
      "name": "Object_0",
      "primitives": [
        {
          "attributes": {
            "NORMAL": 1,
            "POSITION": 0,
            "TANGENT": 2,
            "TEXCOORD_0": 3
          },
          "indices": 4,
          "material": 0,
          "mode": 4
        }
      ]
    },
    {
      "name": "Object_1",
      "primitives": [
        {
          "attributes": {
            "NORMAL": 6,
            "POSITION": 5,
            "TANGENT": 7,
            "TEXCOORD_0": 8
          },
          "indices": 9,
          "material": 0,
          "mode": 4
        }
      ]
    },
    {
      "name": "Object_2",
      "primitives": [
        {
          "attributes": {
            "NORMAL": 11,
            "POSITION": 10,
            "TANGENT": 12,
            "TEXCOORD_0": 13
          },
          "indices": 14,
          "material": 0,
          "mode": 4
        }
      ]
    },
    {
      "name": "Object_3",
      "primitives": [
        {
          "attributes": {
            "NORMAL": 16,
            "POSITION": 15,
            "TANGENT": 17,
            "TEXCOORD_0": 18
          },
          "indices": 19,
          "material": 0,
          "mode": 4
        }
      ]
    },
    {
      "name": "Object_4",
      "primitives": [
        {
          "attributes": {
            "NORMAL": 21,
            "POSITION": 20,
            "TANGENT": 22,
            "TEXCOORD_0": 23
          },
          "indices": 24,
          "material": 0,
          "mode": 4
        }
      ]
    }
  ],
  "nodes": [
    {
      "children": [
        1
      ],
      "matrix": [
        1.0,
        0.0,
        0.0,
        0.0,
        0.0,
        2.220446049250313e-16,
        -1.0,
        0.0,
        0.0,
        1.0,
        2.220446049250313e-16,
        0.0,
        0.0,
        0.0,
        0.0,
        1.0
      ],
      "name": "Sketchfab_model"
    },
    {
      "children": [
        2,
        3,
        4,
        5,
        6
      ],
      "name": "Chair.obj.cleaner.materialmerger.gles"
    },
    {
      "mesh": 0,
      "name": "Object_2"
    },
    {
      "mesh": 1,
      "name": "Object_3"
    },
    {
      "mesh": 2,
      "name": "Object_4"
    },
    {
      "mesh": 3,
      "name": "Object_5"
    },
    {
      "mesh": 4,
      "name": "Object_6"
    }
  ],
  "samplers": [
    {
      "magFilter": 9729,
      "minFilter": 9987,
      "wrapS": 10497,
      "wrapT": 10497
    }
  ],
  "scene": 0,
  "scenes": [
    {
      "name": "Sketchfab_Scene",
      "nodes": [
        0
      ]
    }
  ],
  "textures": [
    {
      "sampler": 0,
      "source": 0
    },
    {
      "sampler": 0,
      "source": 1
    },
    {
      "sampler": 0,
      "source": 2
    }
  ]
}
