<svg xmlns="http://www.w3.org/2000/svg" version="1.1" xmlns:xlink="http://www.w3.org/1999/xlink" width="2000" height="408" viewBox="0 0 2000 408"><svg xml:space="preserve" width="2000" height="408" data-version="2" data-id="lg_Zzgj9f1Ac2T095OhlS" viewBox="0 0 289 408" x="0" y="0"><rect width="100%" height="100%" fill="transparent"></rect><path fill="#fff" d="m62.58 190.635 150.97-177.21q7.43-8.91 16.83-8.91 10.4 0 21.29 9.4 5.44 5.45 9.15 10.89 3.72 5.45 3.72 10.89 0 8.91-6.44 15.35l-66.33 77.22-129.19 151.96v99.5q0 23.76-29.7 23.76-29.21 0-29.21-23.76V28.765q0-23.76 29.21-23.76 29.7 0 29.7 23.76zm174.73 195.03-94.05-137.12q-4.95-6.93-4.95-16.83 0-14.85 12.38-23.76h-.5q9.9-6.93 19.8-6.93 9.41 0 15.84 10.89l95.54 139.59-.5-.49q4.46 6.93 4.46 14.85 0 12.87-12.87 22.77h.49q-5.44 3.46-10.39 5.44-4.95 1.98-8.91 1.98t-8.17-2.97q-4.21-2.97-8.17-7.42"></path></svg></svg>