<svg xmlns="http://www.w3.org/2000/svg" version="1.1" xmlns:xlink="http://www.w3.org/1999/xlink" width="1500" height="1500" viewBox="0 0 1500 1500"><rect width="1500" height="1500" x="0" y="0" id="background" stroke="transparent" fill="#111111"></rect><svg xml:space="preserve" width="1000" height="1000" data-version="2" data-id="lg_Zzgj9f1Ac2T095OhlS" viewBox="0 0 289 408" x="250" y="250"><rect width="100%" height="100%" fill="transparent"></rect><path fill="#fff" d="m62.58 190.635 150.97-177.21q7.43-8.91 16.83-8.91 10.4 0 21.29 9.41 5.44 5.44 9.15 10.89 3.72 5.44 3.72 10.89 0 8.91-6.44 15.34l-66.33 77.22-129.19 151.97v99.49q0 23.76-29.7 23.76-29.21 0-29.21-23.76V28.775q0-23.76 29.21-23.76 29.7 0 29.7 23.76zm174.73 195.03-94.05-137.11q-4.95-6.93-4.95-16.83 0-14.85 12.38-23.76h-.5q9.9-6.93 19.8-6.93 9.41 0 15.84 10.89l95.54 139.59-.5-.5q4.46 6.93 4.46 14.85 0 12.87-12.87 22.77h.49q-5.44 3.47-10.39 5.45t-8.91 1.98q-3.96 0-8.17-2.97t-8.17-7.43"></path></svg></svg>