<svg xmlns="http://www.w3.org/2000/svg" xml:space="preserve" width="192" height="192" data-version="2">
    <path fill="#fff" d="m76.44 78.68 46.97-55.13q2.31-2.77 5.24-2.77 3.23 0 6.62 2.93 1.69 1.69 2.85 3.38 1.15 1.7 1.15 3.39 0 2.77-2 4.78l-20.63 24.02-40.2 47.28v30.95q0 7.39-9.24 7.39-9.08 0-9.08-7.39V28.33q0-7.4 9.08-7.4 9.24 0 9.24 7.4zm54.36 60.68L101.54 96.7Q100 94.55 100 91.47q0-4.62 3.85-7.4h-.15q3.08-2.15 6.16-2.15 2.93 0 4.93 3.39l29.72 43.42-.15-.15q1.38 2.16 1.38 4.62 0 4-4 7.08h.15q-1.69 1.08-3.23 1.7-1.54.61-2.77.61-1.24 0-2.54-.92-1.31-.92-2.55-2.31" paint-order="stroke"/>
</svg>
